<svg id="Layer_1" data-name="Layer 1" xmlns="http://www.w3.org/2000/svg" width="19.3" height="30.92" viewBox="0 0 19.3 30.92"><defs><style>.cls-1{fill:#ed6c51;}</style></defs><title>baby</title><g id="Warstwa_2" data-name="Warstwa 2"><g id="Warstwa_1-2" data-name="Warstwa 1-2"><path class="cls-1" d="M9,19.51C7,18.94,6.34,18,6.45,16a11.92,11.92,0,0,1,.33-2.21,8.67,8.67,0,0,1,4.76-5.9,4.77,4.77,0,0,1-.86-4.42A4.58,4.58,0,0,1,12.5,1a4.75,4.75,0,0,1,5.82.31c1.83,1.62,2.07,3.84.71,6.36l.21.13a8.81,8.81,0,0,1,5.18,6.9,12.56,12.56,0,0,1,.16,1.83,2.87,2.87,0,0,1-2.27,2.85l-.29.07.33.36c.64.64,1.3,1.28,1.93,1.93a2.87,2.87,0,0,1,.06,4.06l-.08.07-4.44,4.45a2.23,2.23,0,0,1-3.15.07l0,0a2.35,2.35,0,0,1-.12-3.21c.5-.54,1-1.05,1.55-1.57s.44-.74,0-1.18c-.07-.07-.14-.15-.22-.22-1.31-1.32-1.31-1.32-3.17-1.26a.79.79,0,0,0-.47.19c-.46.43-.9.89-1.34,1.33a.69.69,0,0,0-.12,1,.74.74,0,0,0,.12.13c.5.55,1,1.08,1.55,1.61a2.24,2.24,0,0,1,.06,3.16l-.06.06a2.2,2.2,0,0,1-3.1.12l-.08-.07q-2.33-2.28-4.6-4.6a2.85,2.85,0,0,1,.07-4C7.46,21,8.22,20.3,9,19.51Zm2.36-3.46h8.24V13.71c0-.17,0-.42.11-.5a1.19,1.19,0,0,1,.72-.3c.39,0,.54.36.54.75v3.87c0,.15,0,.31,0,.48h.4c1.23,0,1.83-.6,1.77-1.83a8.67,8.67,0,0,0-.12-1.25,7.64,7.64,0,0,0-4.82-6.09.7.7,0,0,0-.7.05,4.3,4.3,0,0,1-4.05.3,1.81,1.81,0,0,0-2,.2,9.86,9.86,0,0,0-1,.69,8.35,8.35,0,0,0-2.78,6.1A1.69,1.69,0,0,0,10,18V13.71c0-.53.32-.88.72-.86s.65.36.66.87v2.33ZM15.24,1.51a3.32,3.32,0,0,0-3.39,3.27v.06a3.36,3.36,0,0,0,6.72,0A3.38,3.38,0,0,0,15.24,1.51ZM13,22.29,10.61,19.8c-1,1-2.09,2-3.1,3.07a1.38,1.38,0,0,0,.06,1.92c1.52,1.54,3,3.06,4.59,4.6a.91.91,0,0,0,1.47-.95,1.64,1.64,0,0,0-.36-.5c-1-1.05-2.09-2.09-3.14-3.14-.42-.43-.48-.81-.18-1.13s.69-.29,1.13.14l.25.23C11.92,23.4,12.49,22.81,13,22.29Zm6.61,1.8.38-.35a.68.68,0,0,1,.95.14.68.68,0,0,1,0,.81,4,4,0,0,1-.28.3l-3,3a.89.89,0,0,0-.12,1.25.46.46,0,0,1,.07.07.88.88,0,0,0,1.25,0l0,0c1.52-1.5,3-3,4.53-4.54a1.36,1.36,0,0,0,0-1.93l-.05,0-1.2-1.21c-.59-.59-1.18-1.18-1.77-1.81l-2.39,2.54ZM11.4,17.57c-.18.9-.16,1,.44,1.55A11.66,11.66,0,0,1,13,20.27a3.09,3.09,0,0,0,3.25,1.26,1.07,1.07,0,0,0,.54-.22c.79-.74,1.52-1.53,2.34-2.23.54-.46.43-1,.39-1.51Z" transform="translate(-5.85 -0.14)"/></g></g></svg>