<svg width="238" height="175" viewBox="0 0 238 175" fill="none" xmlns="http://www.w3.org/2000/svg">
<ellipse cx="146.5" cy="48" rx="146.5" ry="56" fill="#F8FAFD"/>
<ellipse cx="227.5" cy="98" rx="95.5" ry="53" fill="#F8FAFD"/>
<g clip-path="url(#clip0)">
<path d="M119.667 45C111.935 45 105.667 57.5918 105.667 73.125V98.3306C105.667 104.354 104.238 107.525 101.121 116.915C100.618 118.433 101.742 120 103.335 120H144.302C146.311 120 148.094 118.709 148.73 116.795C150.601 111.158 152.334 106.189 152.334 98.3306V73.125C152.334 60.8789 155.785 50.6367 161.148 45H119.667ZM115 77.8125C113.711 77.8125 112.667 76.7637 112.667 75.4688C112.667 74.1738 113.711 73.125 115 73.125C116.289 73.125 117.334 74.1738 117.334 75.4688C117.334 76.7637 116.289 77.8125 115 77.8125ZM124.334 77.8125C123.044 77.8125 122 76.7637 122 75.4688C122 74.1738 123.044 73.125 124.334 73.125C125.623 73.125 126.667 74.1738 126.667 75.4688C126.667 76.7637 125.623 77.8125 124.334 77.8125ZM133.667 77.8125C132.378 77.8125 131.334 76.7637 131.334 75.4688C131.334 74.1738 132.378 73.125 133.667 73.125C134.956 73.125 136 74.1738 136 75.4688C136 76.7637 134.956 77.8125 133.667 77.8125ZM143 77.8125C141.711 77.8125 140.667 76.7637 140.667 75.4688C140.667 74.1738 141.711 73.125 143 73.125C144.289 73.125 145.334 74.1738 145.334 75.4688C145.334 76.7637 144.289 77.8125 143 77.8125ZM171 45C163.268 45 157 57.5918 157 73.125C157 88.6582 163.268 101.25 171 101.25C178.732 101.25 185 88.6582 185 73.125C185 57.5918 178.732 45 171 45ZM171 82.5C168.423 82.5 166.334 78.3032 166.334 73.125C166.334 67.9468 168.423 63.75 171 63.75C173.577 63.75 175.667 67.9468 175.667 73.125C175.667 78.3032 173.577 82.5 171 82.5Z" fill="#E2ECF4"/>
</g>
<path d="M214.5 128.781C206.581 128.781 200.156 134.748 200.156 142.099C200.156 152.458 214.5 170.219 214.5 170.219C214.5 170.219 228.844 152.458 228.844 142.099C228.844 134.748 222.419 128.781 214.5 128.781ZM214.5 147.797C211.92 147.797 209.828 145.705 209.828 143.125C209.828 140.545 211.92 138.453 214.5 138.453C217.08 138.453 219.172 140.545 219.172 143.125C219.172 145.705 217.08 147.797 214.5 147.797Z" fill="#1F53FF" fill-opacity="0.1"/>
<defs>
<clipPath id="clip0">
<rect width="84" height="75" fill="white" transform="translate(101 45)"/>
</clipPath>
</defs>
</svg>
