<svg width="168" height="290" viewBox="0 0 168 290" fill="none" xmlns="http://www.w3.org/2000/svg">
<ellipse cx="69.5" cy="144" rx="98.5" ry="83" fill="#E2ECF4"/>
<ellipse cx="33.5" cy="207" rx="98.5" ry="83" fill="#E2ECF4"/>
<path d="M36.305 51.4798C43.7586 52.7384 49.4135 52.439 53.1289 51.9641C53.6225 51.9002 53.9987 51.5224 54.0695 51.0375C54.5914 47.4366 54.7405 41.6551 53.4947 34.2518C52.1578 26.2383 49.386 18.8742 43.8708 13.1677C43.7628 13.0602 43.6548 12.9348 43.5469 12.8273C41.8915 11.1791 39.9679 9.9624 37.8834 9.14102C36.6795 8.67681 35.431 8.34735 34.1558 8.15261C28.0944 7.22311 21.3573 9.34723 16.341 14.3852C8.42257 22.3379 7.76663 34.53 14.8827 41.6154C20.6133 47.3214 28.2947 50.1326 36.305 51.4798ZM20.2314 20.0681L20.2761 20.0232C21.1629 19.1325 22.6195 20.2066 22.0474 21.321C19.285 26.6503 19.2765 31.0311 21.5771 36.3315C22.0642 37.4436 20.6659 38.4161 19.7933 37.5652L19.6674 37.4398C15.0343 32.8087 15.2868 25.0341 20.2314 20.0681Z" fill="#E2ECF4"/>
<path d="M103.177 71.1801C104.799 78.5101 106.999 83.3701 108.66 86.4079C108.881 86.811 109.304 86.9343 109.704 86.7263C112.668 85.1778 117.189 82.0794 122.477 76.8344C128.205 71.1673 132.931 64.5876 135.421 56.4952C135.467 56.3392 135.526 56.1731 135.572 56.017C136.269 53.6242 136.54 51.234 136.449 48.9218C136.388 47.5921 136.208 46.298 135.915 45.0555C134.523 39.1471 130.535 34.3446 124.895 32.7005C115.991 30.1051 106.34 36.3356 103.342 46.6219C100.927 54.9055 101.429 63.3056 103.177 71.1801ZM121.857 39.3351L121.908 39.3498C122.905 39.6405 122.582 41.5357 121.521 41.6498C116.441 42.1723 113.052 44.613 109.756 49.6205C109.066 50.6751 107.828 49.9754 108.182 48.7241L108.235 48.5421C110.201 41.8349 116.298 37.7145 121.857 39.3351Z" fill="#C5DAE9" fill-opacity="0.94"/>
<g clip-path="url(#clip0)">
<path d="M90.7128 224.736C87.1993 224.736 84.7808 223.917 83.4572 222.279C82.1336 220.641 81.4718 218.377 81.4718 215.486V166.924C81.7606 167.309 82.2299 168.02 82.8796 169.056C83.5294 170.091 83.9987 170.766 84.2874 171.079C84.5762 171.392 85.0335 171.826 85.6591 172.38C86.2848 172.934 86.9948 173.283 87.7889 173.428C88.583 173.572 89.5577 173.645 90.7128 173.645C94.0819 173.645 97.1622 172.801 99.9538 171.115V222.352C97.3066 223.941 94.2263 224.736 90.7128 224.736ZM51.4387 229.361C46.8182 229.361 42.5587 228.952 38.6601 228.133C34.7616 227.314 31.6813 226.182 29.4191 224.736C27.157 223.291 26.026 221.749 26.026 220.111V171.549C28.6731 173.572 32.2468 175.198 36.7469 176.427C41.2471 177.655 46.1443 178.27 51.4387 178.27C56.733 178.27 61.6302 177.655 66.1304 176.427C70.6305 175.198 74.2042 173.572 76.8513 171.549V220.111C76.8513 221.749 75.7203 223.291 73.4582 224.736C71.1961 226.182 68.1157 227.314 64.2172 228.133C60.3187 228.952 56.0591 229.361 51.4387 229.361ZM51.4387 173.861C46.8182 173.861 42.5587 173.452 38.6601 172.633C34.7616 171.814 31.6813 170.694 29.4191 169.272C27.157 167.851 26.026 166.298 26.026 164.611C26.026 162.925 27.157 161.371 29.4191 159.95C31.6813 158.529 34.7616 157.409 38.6601 156.59C42.5587 155.771 46.8182 155.361 51.4387 155.361C56.0591 155.361 60.3187 155.771 64.2172 156.59C68.1157 157.409 71.1961 158.529 73.4582 159.95C75.7203 161.371 76.8513 162.925 76.8513 164.611C76.8513 166.298 75.7203 167.851 73.4582 169.272C71.1961 170.694 68.1157 171.814 64.2172 172.633C60.3187 173.452 56.0591 173.861 51.4387 173.861ZM51.4387 159.986C48.2621 159.986 45.5427 160.444 43.2806 161.359C41.0185 162.275 39.8874 163.371 39.8874 164.647C39.8874 165.924 41.0185 167.008 43.2806 167.899C45.5427 168.791 48.2621 169.236 51.4387 169.236C54.6152 169.236 57.3346 168.791 59.5967 167.899C61.8588 167.008 62.9899 165.924 62.9899 164.647C62.9899 163.371 61.8588 162.275 59.5967 161.359C57.3346 160.444 54.6152 159.986 51.4387 159.986Z" fill="#F8FAFD"/>
</g>
<defs>
<clipPath id="clip0">
<rect width="74" height="74" fill="white" transform="translate(26 155)"/>
</clipPath>
</defs>
</svg>
