<svg id="Layer_1" data-name="Layer 1" xmlns="http://www.w3.org/2000/svg" width="31.06" height="31" viewBox="0 0 31.06 31"><defs><style>.cls-1{fill:#ed6c52;}</style></defs><title>free</title><g id="Warstwa_2" data-name="Warstwa 2"><g id="Warstwa_1-2" data-name="Warstwa 1-2"><path class="cls-1" d="M0,10.67H1.56v9.67H0Zm.67,0H6.2v1.52H.64Zm0,4.2H5.47v1.52H.64Z" transform="translate(0.03)"/><path class="cls-1" d="M7.61,10.65H9.2v9.69H7.61Zm.66,4.17h3.34a1,1,0,0,0,1-.62,1.65,1.65,0,0,0,.15-.69,1.5,1.5,0,0,0-.14-.69,1,1,0,0,0-.39-.48,1.16,1.16,0,0,0-.6-.17H8.27V10.65h3.39A2.92,2.92,0,0,1,13.1,11a2.5,2.5,0,0,1,1,1,3.18,3.18,0,0,1,.34,1.51,3.12,3.12,0,0,1-.34,1.5,2.46,2.46,0,0,1-1,1,2.86,2.86,0,0,1-1.43.35H8.27Zm2.34,1.23,1.65-.31,2.56,4.61H12.9Z" transform="translate(0.03)"/><path class="cls-1" d="M16.51,10.67H18.1v9.67H16.51Zm.66,0h5.69v1.52H17.17Zm0,4.12h5v1.52h-5Zm0,4.05h5.69v1.5H17.17Z" transform="translate(0.03)"/><path class="cls-1" d="M24.68,10.67h1.59v9.67H24.68Zm.66,0H31v1.52H25.34Zm0,4.12h5v1.52h-5Zm0,4.05H31v1.5H25.34Z" transform="translate(0.03)"/></g></g><line class="cls-1" x1="7.63" y1="31" x2="12.74" y2="31"/><line class="cls-1" x1="11.88" x2="16.99"/></svg>