<svg width="43" height="43" viewBox="0 0 43 43" fill="none" xmlns="http://www.w3.org/2000/svg">
<path d="M21.5 14.3333C17.5404 14.3333 14.3334 17.5404 14.3334 21.5C14.3334 25.4596 17.5404 28.6667 21.5 28.6667C25.4596 28.6667 28.6667 25.4596 28.6667 21.5C28.6667 17.5404 25.4596 14.3333 21.5 14.3333ZM37.5175 19.7083C37.1117 16.0751 35.4825 12.6878 32.8974 10.1027C30.3123 7.51757 26.925 5.88834 23.2917 5.4825V1.79167H19.7084V5.4825C16.0751 5.88834 12.6878 7.51757 10.1027 10.1027C7.51758 12.6878 5.88835 16.0751 5.48252 19.7083H1.79169V23.2917H5.48252C5.88835 26.925 7.51758 30.3122 10.1027 32.8973C12.6878 35.4824 16.0751 37.1117 19.7084 37.5175V41.2083H23.2917V37.5175C26.925 37.1117 30.3123 35.4824 32.8974 32.8973C35.4825 30.3122 37.1117 26.925 37.5175 23.2917H41.2084V19.7083H37.5175ZM21.5 34.0417C14.5663 34.0417 8.95835 28.4338 8.95835 21.5C8.95835 14.5663 14.5663 8.95834 21.5 8.95834C28.4338 8.95834 34.0417 14.5663 34.0417 21.5C34.0417 28.4338 28.4338 34.0417 21.5 34.0417Z" fill="#1F53FF"/>
</svg>
