<svg width="31" height="31" viewBox="0 0 31 31" fill="none" xmlns="http://www.w3.org/2000/svg">
<path d="M31 27.5556C31 28.4691 30.6371 29.3452 29.9911 29.9911C29.3452 30.6371 28.4691 31 27.5556 31H3.44444C2.53092 31 1.65481 30.6371 1.00885 29.9911C0.362896 29.3452 0 28.4691 0 27.5556V3.44444C0 2.53092 0.362896 1.65481 1.00885 1.00885C1.65481 0.362896 2.53092 0 3.44444 0L27.5556 0C28.4691 0 29.3452 0.362896 29.9911 1.00885C30.6371 1.65481 31 2.53092 31 3.44444V27.5556Z" fill="#1F53FF"/>
<path d="M12.4267 21.2617C11.1238 21.21 9.1777 21.6664 7.65784 23.5747C7.35573 23.4086 7.00794 23.3449 6.66658 23.3931C6.32522 23.4413 6.00868 23.5988 5.76437 23.842C5.52007 24.0853 5.36116 24.4011 5.31146 24.7423C5.26176 25.0834 5.32395 25.4315 5.4887 25.7343C5.85725 26.4103 6.61675 27.1508 7.64492 27.1956C7.6785 27.1973 7.71295 27.1982 7.74739 27.1982C8.36137 27.1982 9.20784 26.9511 9.9372 25.8557C10.9826 24.2877 12.3035 24.434 12.4732 24.459C12.9175 24.5451 13.3532 24.4315 13.6959 24.1852C13.2163 23.3637 13.3997 22.0841 12.4267 21.2617V21.2617ZM24.7294 23.5626C24.4929 23.4333 24.2276 23.3659 23.9581 23.3666C23.6886 23.3674 23.4237 23.4363 23.188 23.5669C21.7258 21.7345 19.8736 21.2497 18.575 21.2608C17.5804 22.1004 17.7905 23.4128 17.2713 24.2325C17.6001 24.4375 17.9912 24.5184 18.3744 24.4607C18.5233 24.4366 19.8589 24.273 20.9138 25.8566C21.644 26.9511 22.4905 27.1991 23.1044 27.1991C23.1398 27.1991 23.1733 27.1982 23.2069 27.1965C24.2342 27.1508 24.9946 26.4112 25.3631 25.7352C25.5661 25.3628 25.6134 24.9252 25.4946 24.5181C25.3759 24.111 25.1007 23.7674 24.7294 23.5626V23.5626ZM24.1628 16.3095C23.9542 16.1009 23.6805 15.97 23.3873 15.9385C23.094 15.907 22.7988 15.9768 22.5508 16.1364C22.4302 16.1045 22.1064 15.9753 21.5794 15.4483C19.8305 13.6994 18.0523 12.9864 16.8726 12.6937C18.0334 12.3062 18.9866 11.4407 19.53 10.3187C19.8428 10.2816 20.1312 10.1312 20.3407 9.89592C20.5501 9.66061 20.6661 9.35671 20.6666 9.04168C20.6666 8.55946 20.3997 8.1444 20.0079 7.92224C19.8796 5.4276 17.9137 3.44446 15.5 3.44446C13.0863 3.44446 11.1204 5.4276 10.9921 7.92224C10.6003 8.1444 10.3333 8.55946 10.3333 9.04168C10.3333 9.70215 10.8302 10.2403 11.4691 10.3178C12.0125 11.4399 12.9666 12.3053 14.1274 12.6928C12.9468 12.9856 11.1686 13.6986 9.42053 15.4475C8.89353 15.9745 8.56975 16.1037 8.45006 16.1355C8.18182 15.9654 7.86034 15.8999 7.54691 15.9515C7.23349 16.0032 6.95003 16.1684 6.75058 16.4156C6.55113 16.6628 6.44964 16.9748 6.46545 17.2921C6.48127 17.6094 6.61329 17.9097 6.83634 18.1359C6.87681 18.1772 7.44945 18.7309 8.41217 18.7309C9.14928 18.7309 10.1154 18.4054 11.2461 17.2748C11.5974 16.9234 11.9427 16.6453 12.2811 16.3973C12.1787 16.8066 12.1249 17.2266 12.121 17.6485C12.1218 19.7341 13.6339 19.8056 15.5 19.8056C17.3651 19.8056 18.8781 19.7341 18.8781 17.6476C18.8781 17.2472 18.8221 16.8218 18.7179 16.3964C19.0572 16.6444 19.4017 16.9226 19.753 17.2739C20.8828 18.4054 21.8489 18.73 22.5869 18.73C23.5488 18.73 24.1214 18.1763 24.1628 18.135C24.2827 18.0152 24.3779 17.8729 24.4429 17.7163C24.5078 17.5597 24.5412 17.3918 24.5412 17.2222C24.5412 17.0527 24.5078 16.8848 24.4429 16.7282C24.3779 16.5715 24.2827 16.4293 24.1628 16.3095V16.3095Z" fill="white"/>
</svg>
