<svg width="31" height="31" viewBox="0 0 31 31" fill="none" xmlns="http://www.w3.org/2000/svg">
<g clip-path="url(#clip0)">
<path d="M29.312 0H1.70016C0.784686 0 0.033905 0.748359 0.033905 1.66625V29.278C0.033905 30.1959 0.784686 30.9443 1.70016 30.9443H29.312C30.2274 30.9443 30.9782 30.1959 30.9782 29.278V1.66625C30.9782 0.748359 30.2274 0 29.312 0Z" fill="#1F53FF"/>
<path d="M12.9086 14.5312H19.2031C19.4979 14.5312 19.7806 14.4141 19.9891 14.2056C20.1976 13.9972 20.3147 13.7144 20.3147 13.4196C20.3147 13.1248 20.1976 12.842 19.9891 12.6335C19.7806 12.4251 19.4979 12.308 19.2031 12.308H12.9086V14.5312Z" fill="white"/>
<path d="M20.0313 18.8131L22.7947 26.4033C23.0369 27.0669 23.7707 27.4108 24.4343 27.1686C25.0979 26.9264 25.4418 26.1926 25.1996 25.529L22.4363 17.9388L20.0313 18.8131V18.8131Z" fill="white"/>
<path d="M12.9086 8.19319C14.5926 8.19319 15.9577 6.82804 15.9577 5.14405C15.9577 3.46006 14.5926 2.09491 12.9086 2.09491C11.2246 2.09491 9.85947 3.46006 9.85947 5.14405C9.85947 6.82804 11.2246 8.19319 12.9086 8.19319Z" fill="white"/>
<path d="M14.3085 20.2348C13.0394 20.4576 11.8188 19.6026 11.596 18.336L10.4746 11.981C10.2518 10.7119 11.1067 9.49132 12.3734 9.26851C13.6424 9.04569 14.8631 9.90062 15.0859 11.1673L16.2072 17.5223C16.4324 18.7913 15.5775 20.0119 14.3085 20.2348V20.2348Z" fill="white"/>
<path d="M20.7845 20.2711H13.9379C12.974 20.2711 12.1869 19.484 12.1869 18.5201C12.1869 17.5562 12.974 16.769 13.9379 16.769H20.7821C21.746 16.769 22.5331 17.5562 22.5331 18.5201C22.5356 19.4815 21.746 20.2711 20.7845 20.2711V20.2711Z" fill="white"/>
<path d="M13.0031 28.8469C8.99727 28.8469 5.73743 25.5871 5.73743 21.5813C5.73743 19.1667 6.88055 16.9313 8.79868 15.6041C8.95707 15.4948 9.15236 15.4528 9.34171 15.4873C9.53105 15.5218 9.69897 15.63 9.8086 15.7882C9.91794 15.9466 9.95996 16.1419 9.92545 16.3312C9.89094 16.5206 9.78272 16.6885 9.62454 16.7981C8.07696 17.871 7.19055 19.6123 7.19055 21.5813C7.19055 24.7855 9.79891 27.3938 13.0031 27.3938C15.9335 27.3938 18.4135 25.2044 18.772 22.2982C18.8204 21.8986 19.1837 21.6152 19.5809 21.6661C19.9781 21.7145 20.2614 22.0778 20.213 22.475C19.7673 26.1078 16.6673 28.8469 13.0031 28.8469V28.8469Z" fill="white"/>
</g>
<defs>
<clipPath id="clip0">
<rect width="31" height="31" fill="white"/>
</clipPath>
</defs>
</svg>
