<svg width="31" height="31" viewBox="0 0 31 31" fill="none" xmlns="http://www.w3.org/2000/svg">
<path d="M30.778 1.97782C30.778 0.989941 29.9697 0.181641 28.9819 0.181641H1.75781C0.868737 0.181641 0.141266 0.909111 0.141266 1.79818V29.2018C0.141266 30.0909 0.868737 30.8184 1.75781 30.8184H28.9818C29.9697 30.8184 30.778 30.0101 30.778 29.0222V1.97782V1.97782Z" fill="#1F53FF"/>
<path d="M7.979 13.6155H5.89014C5.80342 13.6155 5.72026 13.6499 5.65894 13.7112C5.59763 13.7725 5.56318 13.8557 5.56318 13.9424V15.4151C5.56318 15.5018 5.59763 15.585 5.65894 15.6463C5.72026 15.7076 5.80342 15.7421 5.89014 15.7421H7.59647C7.68318 15.7421 7.76634 15.7765 7.82766 15.8378C7.88897 15.8991 7.92342 15.9823 7.92342 16.069V16.8055C7.92342 16.8922 7.88897 16.9754 7.82766 17.0367C7.76634 17.098 7.68318 17.1325 7.59647 17.1325H5.89007C5.80336 17.1325 5.7202 17.1669 5.65888 17.2282C5.59757 17.2895 5.56312 17.3727 5.56312 17.4594V20.007C5.56312 20.0937 5.52868 20.1769 5.46736 20.2382C5.40604 20.2995 5.32288 20.3339 5.23617 20.3339H3.93883C3.85212 20.3339 3.76896 20.2995 3.70764 20.2382C3.64632 20.1769 3.61188 20.0937 3.61188 20.007V12.5636C3.61188 12.4769 3.64632 12.3938 3.70764 12.3325C3.76896 12.2711 3.85212 12.2367 3.93883 12.2367H8.08339C8.13026 12.2367 8.17659 12.2468 8.21923 12.2662C8.26187 12.2857 8.29982 12.3141 8.33052 12.3496C8.36121 12.385 8.38393 12.4266 8.39712 12.4716C8.41032 12.5166 8.41369 12.5639 8.40701 12.6103L8.30257 13.3351C8.29138 13.4129 8.25251 13.4841 8.19308 13.5356C8.13365 13.5871 8.05764 13.6155 7.979 13.6155V13.6155Z" fill="white"/>
<path d="M11.9778 12.2367C14.1861 12.2367 15.3195 13.0196 15.3195 14.7021C15.3195 15.657 14.9142 16.2726 14.0783 16.7437C13.9172 16.8344 13.86 17.038 13.9546 17.1968L15.5279 19.8399C15.6576 20.0579 15.5004 20.3339 15.2467 20.3339H13.833C13.7737 20.3339 13.7156 20.3178 13.6648 20.2873C13.6141 20.2569 13.5725 20.2132 13.5446 20.1609L12.0818 17.4222C12.0539 17.3699 12.0124 17.3263 11.9616 17.2958C11.9108 17.2653 11.8527 17.2493 11.7934 17.2492H11.5803C11.4936 17.2492 11.4104 17.2837 11.3491 17.345C11.2878 17.4063 11.2534 17.4895 11.2534 17.5762V20.0069C11.2534 20.0936 11.2189 20.1768 11.1576 20.2381C11.0963 20.2994 11.0131 20.3339 10.9264 20.3339H9.62908C9.54236 20.3339 9.4592 20.2994 9.39789 20.2381C9.33657 20.1768 9.30212 20.0936 9.30212 20.0069V12.5636C9.30212 12.4769 9.33657 12.3938 9.39789 12.3325C9.4592 12.2711 9.54236 12.2367 9.62908 12.2367H11.9778V12.2367ZM12.0596 15.9173C12.8775 15.9173 13.3215 15.5551 13.3215 14.7021C13.3215 13.9309 12.8659 13.5921 11.9311 13.5921H11.5804C11.4937 13.5921 11.4105 13.6265 11.3492 13.6879C11.2879 13.7492 11.2534 13.8323 11.2534 13.9191V15.5903C11.2534 15.677 11.2879 15.7602 11.3492 15.8215C11.4105 15.8828 11.4937 15.9173 11.5804 15.9173H12.0596V15.9173Z" fill="white"/>
<path d="M21.0186 13.6155H18.7895C18.7027 13.6155 18.6196 13.6499 18.5583 13.7112C18.497 13.7725 18.4625 13.8557 18.4625 13.9424V15.2164C18.4625 15.3031 18.497 15.3863 18.5583 15.4476C18.6196 15.5089 18.7027 15.5433 18.7895 15.5433H20.6126C20.6993 15.5433 20.7825 15.5778 20.8438 15.6391C20.9051 15.7004 20.9395 15.7836 20.9395 15.8703V16.5718C20.9395 16.6585 20.9051 16.7417 20.8438 16.803C20.7825 16.8643 20.6993 16.8987 20.6126 16.8987H18.7895C18.7027 16.8987 18.6196 16.9332 18.5583 16.9945C18.497 17.0558 18.4625 17.139 18.4625 17.2257V18.6048C18.4625 18.6915 18.497 18.7747 18.5583 18.836C18.6196 18.8973 18.7027 18.9318 18.7895 18.9318H21.1735C21.2602 18.9318 21.3434 18.9662 21.4047 19.0275C21.466 19.0889 21.5004 19.172 21.5004 19.2587V20.0069C21.5004 20.0936 21.466 20.1768 21.4047 20.2381C21.3434 20.2994 21.2602 20.3339 21.1735 20.3339H16.8382C16.7515 20.3339 16.6683 20.2994 16.607 20.2381C16.5457 20.1768 16.5113 20.0936 16.5113 20.0069V12.5636C16.5113 12.4769 16.5457 12.3938 16.607 12.3325C16.6683 12.2711 16.7515 12.2367 16.8382 12.2367H21.123C21.1699 12.2367 21.2162 12.2468 21.2588 12.2662C21.3015 12.2857 21.3394 12.3141 21.3701 12.3496C21.4008 12.385 21.4235 12.4266 21.4367 12.4716C21.4499 12.5166 21.4533 12.5639 21.4466 12.6103L21.3422 13.3351C21.331 13.4129 21.2921 13.4841 21.2326 13.5356C21.1732 13.5871 21.0972 13.6154 21.0186 13.6155Z" fill="white"/>
<path d="M27.1527 13.6155H24.9236C24.8369 13.6155 24.7538 13.6499 24.6925 13.7112C24.6311 13.7725 24.5967 13.8557 24.5967 13.9424V15.2164C24.5967 15.3031 24.6311 15.3863 24.6925 15.4476C24.7538 15.5089 24.8369 15.5433 24.9236 15.5433H26.7468C26.8335 15.5433 26.9166 15.5778 26.978 15.6391C27.0393 15.7004 27.0737 15.7836 27.0737 15.8703V16.5718C27.0737 16.6585 27.0393 16.7417 26.978 16.803C26.9166 16.8643 26.8335 16.8987 26.7468 16.8987H24.9236C24.8369 16.8987 24.7538 16.9332 24.6925 16.9945C24.6311 17.0558 24.5967 17.139 24.5967 17.2257V18.6048C24.5967 18.6915 24.6311 18.7747 24.6925 18.836C24.7538 18.8973 24.8369 18.9318 24.9236 18.9318H27.3077C27.3944 18.9318 27.4776 18.9662 27.5389 19.0275C27.6002 19.0889 27.6346 19.172 27.6346 19.2587V20.0069C27.6346 20.0936 27.6002 20.1768 27.5389 20.2381C27.4776 20.2994 27.3944 20.3339 27.3077 20.3339H22.9724C22.8857 20.3339 22.8025 20.2994 22.7412 20.2381C22.6799 20.1768 22.6454 20.0936 22.6454 20.0069V12.5636C22.6454 12.4769 22.6799 12.3938 22.7412 12.3325C22.8025 12.2711 22.8857 12.2367 22.9724 12.2367H27.2572C27.3041 12.2367 27.3504 12.2468 27.393 12.2662C27.4357 12.2857 27.4736 12.3141 27.5043 12.3496C27.535 12.385 27.5577 12.4266 27.5709 12.4716C27.5841 12.5166 27.5875 12.5639 27.5808 12.6103L27.4764 13.3351C27.4652 13.4129 27.4263 13.4841 27.3668 13.5356C27.3074 13.5871 27.2314 13.6155 27.1527 13.6155V13.6155Z" fill="white"/>
</svg>
